<svg xmlns="http://www.w3.org/2000/svg" version="1.1" xmlns:xlink="http://www.w3.org/1999/xlink" xmlns:svgjs="http://svgjs.dev/svgjs" width="100%" height="100%" viewBox="0 0 1000 600"><rect width="1000" height="600" x="0" y="0" fill="#f7f7f7"/><g><rect width="333.3333333333333" height="333.3333333333333" rx="13.333333333333334" ry="13.333333333333334" y="185.49997807649896" fill="#006838" transform="matrix(0.7655665510217584,0,0,0.7655665510217584,0,30.39298106110519)" x="163.27772521972656"/><path d="M329.0788959568789 277.16663608530473L267.837349940327 340.34809462187417L334.68971986092953 427.16664109465665L310.8138734607143 427.16664109465665L255.3920650042148 354.1065511099982L254.31765191620514 354.1065511099982L230.4716503239902 378.81805213422086L230.4716503239902 427.16664109465665L210.89345627581375 427.16664109465665L210.89345627581375 277.16663608530473L230.4716503239902 277.16663608530473L230.4716503239902 353.8976374539963L231.09839129199585 353.8976374539963L303.53174030864864 277.16663608530473L329.0788959568789 277.16663608530473ZM410.525376989613 315.42767994164956L410.525376989613 315.42767994164956Q428.37257217377385 315.42767994164956 438.6690309338667 327.455137565758Q448.99533450195975 339.48259518986634 448.99533450195975 357.5387040300291L448.99533450195975 357.5387040300291L448.99533450195975 427.16664109465665L429.44698526178354 427.16664109465665L429.44698526178354 359.6875302060485Q429.44698526178354 333.4837887818123 405.80989732557055 333.4837887818123L405.80989732557055 333.4837887818123Q387.0972027094018 333.4837887818123 370.5631790772528 354.1065511099982L370.5631790772528 354.1065511099982L370.5631790772528 427.16664109465665L351.0148298370766 427.16664109465665L351.0148298370766 317.57650611766894L368.20543924523156 317.57650611766894L370.5631790772528 331.33496260579295L370.5631790772528 334.55820186982197L370.98100638925655 334.55820186982197Q388.41037426141366 315.42767994164956 410.525376989613 315.42767994164956Z " fill="#f7f7f7" transform="matrix(0.7655665510217584,0,0,0.7655665510217584,0,30.39298106110519)"/><path d="M667.3332803565937 323.16664971304726L625.944394391521 364.16664681670323L671.9443911419643 425.16664250750847L649.5277260588678 425.16664250750847L613.5277286019991 376.97220146764187L612.9443953098739 376.97220146764187L598.1388408002204 391.7777559772954L598.1388408002204 425.16664250750847L579.9443976410777 425.16664250750847L579.9443976410777 279.16665282131885L598.1388408002204 279.16665282131885L598.1388408002204 368.5555353955499L598.749951868161 368.5555353955499L642.9443931905978 323.16664971304726L667.3332803565937 323.16664971304726ZM690.9443897997561 345.1666481589114L690.9443897997561 328.7777604277752Q708.3332774602496 321.1666498543323 728.2499427199525 321.1666498543323Q748.1388302038398 321.1666498543323 758.7499405653551 332.7777601452051Q769.333273151055 344.3610926602624 769.333273151055 360.5555359606902L769.333273151055 360.5555359606902L769.333273151055 425.16664250750847L753.3332742813355 425.16664250750847L751.1388299919122 412.36108785656984L750.5277189239715 412.36108785656984Q736.1388310515503 427.16664236622336 713.5277215377454 427.16664236622336L713.5277215377454 427.16664236622336Q699.9443891639733 427.16664236622336 690.4443898350773 418.97219850065534Q680.9443905061814 410.7777546350872 680.9443905061814 396.5555334175588Q680.9443905061814 382.36108997584597 692.6388341245006 373.55553504233717Q704.3332777428199 364.7777578846439 726.9443872566247 364.7777578846439L726.9443872566247 364.7777578846439L751.1388299919122 364.7777578846439L751.1388299919122 363.16664688734573Q751.1388299919122 349.97220337499033 744.6388304510887 344.16664822955397Q738.1388309102653 338.3610930841176 722.1388320405458 338.3610930841176Q706.1388331708264 338.3610930841176 692.1388341598218 345.1666481589114L692.1388341598218 345.1666481589114L690.9443897997561 345.1666481589114ZM751.1388299919122 396.16664455614205L751.1388299919122 396.16664455614205L751.1388299919122 379.3610901877736L729.3332759767565 379.3610901877736Q699.1388336653241 379.3610901877736 699.1388336653241 395.2777557300465Q699.1388336653241 411.166643496504 720.3332766125392 411.166643496504L720.3332766125392 411.166643496504Q729.138831546048 411.166643496504 737.3332754116161 406.86108824510376Q745.5277192771842 402.5555329937036 751.1388299919122 396.16664455614205ZM801.749937527726 279.16665282131885L819.9443806868687 279.16665282131885L819.9443806868687 425.16664250750847L801.749937527726 425.16664250750847L801.749937527726 279.16665282131885ZM908.5277077624506 321.1666498543323L908.5277077624506 321.1666498543323Q925.1388177001107 321.1666498543323 934.7499281322686 332.36109350797284Q944.333260788611 343.5555371616133 944.333260788611 360.36109152998176L944.333260788611 360.36109152998176L944.333260788611 425.16664250750847L926.1388176294682 425.16664250750847L926.1388176294682 362.3610913886967Q926.1388176294682 337.9722042227008 904.1388191836041 337.9722042227008L904.1388191836041 337.9722042227008Q886.7499315231104 337.9722042227008 871.3332659455162 357.16664731120096L871.3332659455162 357.16664731120096L871.3332659455162 425.16664250750847L853.1388227863735 425.16664250750847L853.1388227863735 323.16664971304726L869.1388216560928 323.16664971304726L871.3332659455162 335.9722043639859L871.3332659455162 338.9722041520583L871.7499325827484 338.9722041520583Q887.9443758831762 321.1666498543323 908.5277077624506 321.1666498543323ZM976.749925165282 345.1666481589114L976.749925165282 328.7777604277752Q994.1388128257757 321.1666498543323 1014.027700309663 321.1666498543323Q1033.9443655693658 321.1666498543323 1044.5276981550655 332.7777601452051Q1055.1388085165809 344.3610926602624 1055.1388085165809 360.5555359606902L1055.1388085165809 360.5555359606902L1055.1388085165809 425.16664250750847L1039.1388096468615 425.16664250750847L1036.9443653574383 412.36108785656984L1036.3332542894977 412.36108785656984Q1021.9443664170764 427.16664236622336 999.3332569032714 427.16664236622336L999.3332569032714 427.16664236622336Q985.7499245294993 427.16664236622336 976.2499252006033 418.97219850065534Q966.7499258717074 410.7777546350872 966.7499258717074 396.5555334175588Q966.7499258717074 382.36108997584597 978.4443694900266 373.55553504233717Q990.138813108346 364.7777578846439 1012.7499226221507 364.7777578846439L1012.7499226221507 364.7777578846439L1036.9443653574383 364.7777578846439L1036.9443653574383 363.16664688734573Q1036.9443653574383 349.97220337499033 1030.4443658166147 344.16664822955397Q1023.9443662757913 338.3610930841176 1007.9443674060718 338.3610930841176Q991.9443685363524 338.3610930841176 977.944369525348 345.1666481589114L977.944369525348 345.1666481589114L976.749925165282 345.1666481589114ZM1036.9443653574383 396.16664455614205L1036.9443653574383 396.16664455614205L1036.9443653574383 379.3610901877736L1015.1388113422825 379.3610901877736Q984.9443690308502 379.3610901877736 984.9443690308502 395.2777557300465Q984.9443690308502 411.166643496504 1006.1388119780653 411.166643496504L1006.1388119780653 411.166643496504Q1014.9443669115741 411.166643496504 1023.1388107771422 406.86108824510376Q1031.3332546427102 402.5555329937036 1036.9443653574383 396.16664455614205ZM1142.9443578693295 297.1666515497532L1141.5276913027396 297.1666515497532Q1134.1388029358204 294.5555406230976 1127.0276923270562 294.5555406230976Q1119.9443594941076 294.5555406230976 1115.833248673416 298.3610959098191Q1111.7499156285394 302.1666511965405 1111.7499156285394 312.16665049011516L1111.7499156285394 312.16665049011516L1111.7499156285394 323.16664971304726L1142.9443578693295 323.16664971304726L1142.9443578693295 338.77775972134987L1111.7499156285394 338.77775972134987L1111.7499156285394 425.16664250750847L1093.5276946935815 425.16664250750847L1093.5276946935815 338.77775972134987L1074.9443626730217 338.77775972134987L1074.9443626730217 323.16664971304726L1093.5276946935815 323.16664971304726L1093.5276946935815 311.5555394221745Q1093.5276946935815 294.16665176168084 1102.444360730352 285.6666523621424Q1111.3332489913073 277.16665296260396 1122.6388037482097 277.16665296260396Q1133.9443585051122 277.16665296260396 1142.9443578693295 282.16665260939124L1142.9443578693295 282.16665260939124L1142.9443578693295 297.1666515497532Z " fill="#006838" transform="matrix(0.7655665510217584,0,0,0.7655665510217584,0,30.39298106110519)"/></g></svg>